<svg xmlns="http://www.w3.org/2000/svg" version="1.1" xmlns:xlink="http://www.w3.org/1999/xlink" xmlns:svgjs="http://svgjs.com/svgjs" width="390" height="390"><svg width="390" height="390" viewBox="0 0 390 390" fill="none" xmlns="http://www.w3.org/2000/svg">
<rect width="390" height="390" fill="#E83C3C"></rect>
<path d="M135.709 163.856L142.327 139.073H118.107L111.489 163.856H94.8727L101.35 139.073H77.13L70.6525 163.856H52.3466L46.2916 186.668H64.5975L61.218 199.623H42.7712L36.857 222.435H55.1629L48.5446 247.641H72.7648L79.3831 222.435H95.9992L89.3809 247.641H113.601L120.219 222.435H139.793L145.848 199.623H126.274L129.654 186.668H149.368L155.282 163.856H135.709ZM88.8176 186.668H105.434L102.054 199.623H85.4381L88.8176 186.668ZM216.878 193.568V213.141H246.308C241.802 221.449 233.212 226.519 222.51 226.519C206.739 226.519 195.192 214.69 195.192 198.215C195.192 181.88 206.739 169.911 222.51 169.911C234.198 169.911 243.351 176.529 247.153 186.527H272.218C267.43 163.574 247.434 147.099 222.369 147.099C193.362 147.099 170.831 169.207 170.831 198.215C170.831 227.364 193.362 249.331 222.369 249.331C251.518 249.331 273.908 227.364 273.908 198.215C273.908 196.807 273.767 194.413 273.344 193.568H216.878ZM355.828 171.742V148.93H288.096V247.5H312.034V210.184H352.589V187.372H312.034V171.742H355.828Z" fill="black"></path>
</svg><style>@media (prefers-color-scheme: light) { :root { filter: none; } }
</style></svg>